<?xml version="1.0" encoding="UTF-8"?>
<svg version="1.1" xmlns="http://www.w3.org/2000/svg" width="402" height="361">
<path d="M0 0 C15.54584898 12.00678001 27.47050417 30.22788322 30.046875 49.97265625 C31.38716003 73.32339989 28.07154793 93.29593283 12.24609375 111.56640625 C7.50680167 116.75184839 3.06854556 121.30090591 -2.953125 124.97265625 C1.47496685 133.22363615 6.11479492 141.33776343 10.859375 149.41015625 C11.22182312 150.02783875 11.58427124 150.64552124 11.95770264 151.28192139 C17.62277882 160.93144373 23.36534593 170.53263176 29.171875 180.09765625 C29.51900543 180.66998993 29.86613586 181.24232361 30.2237854 181.83200073 C34.74013846 189.2716249 39.34454331 196.64917275 44.046875 203.97265625 C44.75650391 203.61945313 45.46613281 203.26625 46.19726562 202.90234375 C63.63361272 194.36537935 85.05645438 192.71108584 103.66015625 198.6484375 C113.9271354 202.66286188 122.82982257 207.53685159 131.046875 214.97265625 C131.81644531 215.64941406 132.58601563 216.32617188 133.37890625 217.0234375 C146.32744317 229.08962097 154.67477015 246.83399181 155.3828125 264.57421875 C155.70991286 286.13439892 151.55328773 306.0842087 136.10839844 322.01928711 C134.76935042 323.35210592 133.40870646 324.66312555 132.046875 325.97265625 C131.06267578 326.96845703 131.06267578 326.96845703 130.05859375 327.984375 C114.77867005 342.5444736 95.15871346 346.52928424 74.7421875 346.24609375 C58.14417811 345.68859493 42.39681585 339.06285814 30.046875 327.97265625 C29.22574219 327.24433594 28.40460938 326.51601563 27.55859375 325.765625 C15.47076153 314.41150035 7.65940579 299.36034939 5.046875 282.97265625 C5.046875 279.67265625 5.046875 276.37265625 5.046875 272.97265625 C-27.953125 272.97265625 -60.953125 272.97265625 -94.953125 272.97265625 C-94.953125 276.27265625 -94.953125 279.57265625 -94.953125 282.97265625 C-97.69054671 300.00950453 -105.63262506 314.12532174 -117.953125 325.97265625 C-118.60925781 326.63652344 -119.26539062 327.30039062 -119.94140625 327.984375 C-134.25359112 341.62232418 -152.41820471 346.73484541 -171.72705078 346.49438477 C-189.79900391 345.88905807 -206.34179355 340.19558231 -219.953125 327.97265625 C-220.77425781 327.24433594 -221.59539062 326.51601563 -222.44140625 325.765625 C-236.87537899 312.20776593 -244.97976319 293.6677005 -245.953125 273.97265625 C-246.09799008 254.12614058 -239.98138957 234.33604225 -226.01464844 219.92602539 C-224.67560042 218.59320658 -223.31495646 217.28218695 -221.953125 215.97265625 C-221.29699219 215.30878906 -220.64085937 214.64492187 -219.96484375 213.9609375 C-206.22077746 200.86434328 -187.57453295 195.42369381 -168.953125 194.97265625 C-156.72515806 195.28278585 -144.78924724 198.32951247 -133.953125 203.97265625 C-126.53778663 192.38261581 -119.51910207 180.56124406 -112.51123047 168.72265625 C-106.62871301 158.78622235 -100.71157468 148.87126336 -94.765625 138.97265625 C-94.36786865 138.31038025 -93.9701123 137.64810425 -93.56030273 136.96575928 C-91.35894589 133.30076847 -89.15655057 129.63640381 -86.953125 125.97265625 C-89.475085 123.42942632 -92.02212288 121.0247395 -94.765625 118.72265625 C-108.29595792 106.86798378 -116.87163798 91.70564849 -119.953125 73.97265625 C-121.43136762 50.44620105 -117.80084916 30.07395586 -101.953125 11.97265625 C-101.14101563 10.94785156 -101.14101563 10.94785156 -100.3125 9.90234375 C-76.07958926 -19.87922412 -29.90635112 -20.53094739 0 0 Z M-81.953125 127.97265625 C-83.40372431 130.12957936 -84.72192844 132.27407398 -86.015625 134.5234375 C-86.41338135 135.20102615 -86.8111377 135.87861481 -87.22094727 136.57673645 C-88.0567647 138.00114569 -88.88963178 139.42728974 -89.71972656 140.8550415 C-91.22953732 143.44722699 -92.75996392 146.02677464 -94.29258728 148.60551453 C-95.41016187 150.48599867 -96.52490311 152.36813639 -97.63891602 154.25073242 C-103.34668049 163.89336399 -109.05551876 173.53370586 -114.89453125 183.09765625 C-115.28724213 183.74132645 -115.679953 184.38499664 -116.08456421 185.048172 C-117.9496894 188.10300747 -119.81984364 191.15461134 -121.69726562 194.2019043 C-122.36048828 195.28511963 -123.02371094 196.36833496 -123.70703125 197.484375 C-124.57823608 198.89916138 -124.57823608 198.89916138 -125.46704102 200.3425293 C-126.87531808 202.83495065 -127.96200511 205.29071316 -128.953125 207.97265625 C-128.40785156 208.37355469 -127.86257812 208.77445312 -127.30078125 209.1875 C-107.88655558 223.82283935 -98.38040779 242.17672535 -94.953125 265.97265625 C-94.953125 266.96265625 -94.953125 267.95265625 -94.953125 268.97265625 C-61.953125 268.97265625 -28.953125 268.97265625 5.046875 268.97265625 C6.036875 261.54765625 6.036875 261.54765625 7.046875 253.97265625 C11.63042972 234.96892939 22.73884555 218.84467589 39.046875 207.97265625 C37.54668974 203.86927871 35.53371378 200.20172993 33.29296875 196.46875 C32.7336692 195.52763367 32.7336692 195.52763367 32.16307068 194.56750488 C30.94049511 192.51285128 29.71258824 190.46144397 28.484375 188.41015625 C27.62953763 186.97675266 26.77488497 185.54323889 25.92041016 184.10961914 C18.92984695 172.39463465 11.858281 160.72910849 4.76171875 149.078125 C0.48919836 142.06339381 -3.74323834 135.02511595 -7.953125 127.97265625 C-11.16744969 129.03749417 -14.37446316 130.11855652 -17.57421875 131.2265625 C-18.84633113 131.66282761 -20.11846683 132.09902471 -21.390625 132.53515625 C-22.02033203 132.75623047 -22.65003906 132.97730469 -23.29882812 133.20507812 C-40.99357512 139.22456554 -60.91501715 136.5340447 -77.625 128.9609375 C-79.83842377 127.84240687 -79.83842377 127.84240687 -81.953125 127.97265625 Z " fill="#7ED957" transform="translate(245.953125,15.02734375)"/>
<path d="M0 0 C15.54584898 12.00678001 27.47050417 30.22788322 30.046875 49.97265625 C31.38725537 73.32506098 28.07100918 93.30009629 12.2421875 111.5703125 C-0.87064345 125.91976273 -18.19283118 135.86183372 -37.97509766 137.09912109 C-52.14914381 137.61483958 -64.57628703 135.87472586 -77.625 129.9609375 C-79.83842377 128.84240687 -79.83842377 128.84240687 -81.953125 128.97265625 C-82.31849365 129.61364258 -82.6838623 130.25462891 -83.06030273 130.91503906 C-92.07944755 146.7100661 -101.33049619 162.33983542 -110.83444214 177.84739685 C-113.26104043 181.81559169 -115.63863989 185.8092497 -118 189.81640625 C-118.63607178 190.88737549 -119.27214355 191.95834473 -119.92749023 193.06176758 C-121.12435846 195.07922735 -122.31188208 197.10226974 -123.48852539 199.1315918 C-124.28504517 200.46637573 -124.28504517 200.46637573 -125.09765625 201.828125 C-125.55503174 202.60824951 -126.01240723 203.38837402 -126.48364258 204.19213867 C-128.21544005 206.2904937 -129.29956398 206.62162224 -131.953125 206.97265625 C-132.68701172 205.40161133 -132.68701172 205.40161133 -132.953125 202.97265625 C-131.80463109 200.53827885 -130.62265256 198.38326958 -129.2109375 196.109375 C-128.80914276 195.44033646 -128.40734802 194.77129791 -127.99337769 194.08198547 C-126.69983946 191.93414363 -125.38943414 189.79718489 -124.078125 187.66015625 C-123.23323081 186.26436383 -122.38946917 184.86788519 -121.546875 183.47070312 C-119.85616293 180.67116218 -118.15884032 177.87580457 -116.45581055 175.08374023 C-114.09303106 171.20777171 -111.75102612 167.31969839 -109.41796875 163.42578125 C-109.05293747 162.81662872 -108.68790619 162.2074762 -108.31181335 161.5798645 C-107.57080179 160.34297211 -106.82990167 159.10601294 -106.08911133 157.86898804 C-104.10686212 154.55996741 -102.1215919 151.2527596 -100.13671875 147.9453125 C-99.3456897 146.62696118 -98.554674 145.30860185 -97.76367188 143.99023438 C-94.16015625 137.984375 -90.55664062 131.97851562 -86.953125 125.97265625 C-89.475085 123.42942632 -92.02212288 121.0247395 -94.765625 118.72265625 C-108.29595792 106.86798378 -116.87163798 91.70564849 -119.953125 73.97265625 C-121.43136762 50.44620105 -117.80084916 30.07395586 -101.953125 11.97265625 C-101.41171875 11.28945313 -100.8703125 10.60625 -100.3125 9.90234375 C-76.07958926 -19.87922412 -29.90635112 -20.53094739 0 0 Z " fill="#FE66C3" transform="translate(245.953125,15.02734375)"/>
<path d="M0 0 C1.58030823 1.52340679 3.143267 3.06503628 4.6875 4.625 C5.45707031 5.36105469 6.22664062 6.09710938 7.01953125 6.85546875 C18.90495007 18.94336489 26.46760027 37.63774563 26.6875 54.625 C26.49240416 75.5490285 20.30924591 95.17449006 5.33203125 110.08203125 C4.45933594 110.92121094 3.58664063 111.76039063 2.6875 112.625 C2.03136719 113.28886719 1.37523438 113.95273437 0.69921875 114.63671875 C-13.61296612 128.27466793 -31.77757971 133.38718916 -51.08642578 133.14672852 C-69.15837891 132.54140182 -85.70116855 126.84792606 -99.3125 114.625 C-100.13363281 113.89667969 -100.95476562 113.16835938 -101.80078125 112.41796875 C-116.23475399 98.86010968 -124.33913819 80.32004425 -125.3125 60.625 C-125.45736508 40.77848433 -119.34076457 20.988386 -105.37402344 6.57836914 C-104.03497542 5.24555033 -102.67433146 3.9345307 -101.3125 2.625 C-100.65636719 1.96113281 -100.00023438 1.29726562 -99.32421875 0.61328125 C-72.4790419 -24.96724059 -27.32608728 -23.89975125 0 0 Z " fill="#FEDE59" transform="translate(125.3125,228.375)"/>
<path d="M0 0 C2.475 0.495 2.475 0.495 5 1 C3.38358305 7.27550109 -0.08234153 12.41026672 -3.4375 17.875 C-4.4420793 19.52874922 -5.44662028 21.18252223 -6.44981384 22.83711243 C-7.16359275 24.0143221 -7.87801396 25.19114254 -8.59303284 26.36759949 C-12.64280345 33.03838898 -16.607549 39.75912391 -20.57836914 46.4770813 C-23.70518979 51.76074324 -26.84986375 57.03379895 -29.99304199 62.30773926 C-30.91489282 63.85697165 -31.83312013 65.40835869 -32.75097656 66.95996094 C-34.13423245 69.29349166 -35.531944 71.61736051 -36.9375 73.9375 C-37.30786377 74.56922119 -37.67822754 75.20094238 -38.05981445 75.85180664 C-39.5815197 78.32714751 -40.49490871 79.80304066 -43.25390625 80.87890625 C-44.11822266 80.93884766 -44.11822266 80.93884766 -45 81 C-45.73388672 79.42895508 -45.73388672 79.42895508 -46 77 C-44.85150609 74.5656226 -43.66952756 72.41061333 -42.2578125 70.13671875 C-41.85601776 69.46768021 -41.45422302 68.79864166 -41.04025269 68.10932922 C-39.74671446 65.96148738 -38.43630914 63.82452864 -37.125 61.6875 C-36.28010581 60.29170758 -35.43634417 58.89522894 -34.59375 57.49804688 C-32.90303793 54.69850593 -31.20571532 51.90314832 -29.50268555 49.11108398 C-27.13990606 45.23511546 -24.79790112 41.34704214 -22.46484375 37.453125 C-22.09981247 36.84397247 -21.73478119 36.23481995 -21.35868835 35.60720825 C-20.61767679 34.37031586 -19.87677667 33.13335669 -19.13598633 31.89633179 C-17.15373712 28.58731116 -15.1684669 25.28010335 -13.18359375 21.97265625 C-12.3925647 20.65430493 -11.601549 19.3359456 -10.81054688 18.01757812 C-7.20703125 12.01171875 -3.60351562 6.00585938 0 0 Z " fill="#3D3D3D" transform="translate(159,141)"/>
<path d="M0 0 C1.32 0 2.64 0 4 0 C5.62133789 1.97070312 5.62133789 1.97070312 7.22265625 4.78125 C7.83407471 5.83513916 8.44549316 6.88902832 9.07543945 7.97485352 C9.73785178 9.14986919 10.40020349 10.32491904 11.0625 11.5 C11.76031888 12.71180431 12.45981644 13.92264332 13.16088867 15.13256836 C14.66054801 17.72296936 16.15344589 20.31710868 17.64257812 22.91357422 C21.22763508 29.14739037 24.90994499 35.32367827 28.58770752 41.50308228 C29.8072793 43.55372169 31.02385952 45.6061093 32.23974609 47.65893555 C37.07941277 55.8224387 41.96407219 63.95532551 47.0559082 71.96508789 C50 76.67599242 50 76.67599242 50 80 C48.02 80.495 48.02 80.495 46 81 C40.62359627 73.23715147 35.85273944 65.12966043 31.0625 57 C29.37224823 54.13994168 27.68023895 51.28092436 25.98828125 48.421875 C25.35622269 47.35305084 25.35622269 47.35305084 24.71139526 46.26263428 C20.17321501 38.59265261 15.58429099 30.95356685 10.98461914 23.3203125 C9.87997302 21.48461532 8.77883732 19.64680002 7.68164062 17.80664062 C6.46503315 15.77613546 5.23250033 13.75514387 3.99023438 11.74023438 C3.33861328 10.66580078 2.68699219 9.59136719 2.015625 8.484375 C1.41524414 7.50694336 0.81486328 6.52951172 0.19628906 5.52246094 C-1 3 -1 3 0 0 Z " fill="#3B3B3B" transform="translate(239,141)"/>
<path d="M0 0 C33 0 66 0 100 0 C100 1.32 100 2.64 100 4 C67 4 34 4 0 4 C0 2.68 0 1.36 0 0 Z " fill="#000000" transform="translate(151,284)"/>
<path d="M0 0 C0 0.33 0 0.66 0 1 C-1.65 1 -3.3 1 -5 1 C-5 0.34 -5 -0.32 -5 -1 C-7.31 -1.33 -9.62 -1.66 -12 -2 C-12 -2.66 -12 -3.32 -12 -4 C-20.415 -3.505 -20.415 -3.505 -29 -3 C-28.67 -3.99 -28.34 -4.98 -28 -6 C-36.25 -6 -44.5 -6 -53 -6 C-53 -6.33 -53 -6.66 -53 -7 C-34.57954848 -10.26247779 -16.84373584 -8.74578591 0 0 Z " fill="#F9E68B" transform="translate(112,219)"/>
<path d="M0 0 C2.78624173 3.25592248 3.92349313 6.34575415 5.125 10.4375 C5.45757812 11.54996094 5.79015625 12.66242188 6.1328125 13.80859375 C9.85201114 27.49591488 9.9366372 44.60055616 5 58 C4.67 58 4.34 58 4 58 C4 54.37 4 50.74 4 47 C4.66 47 5.32 47 6 47 C6 37.76 6 28.52 6 19 C5.34 19 4.68 19 4 19 C3.87882812 18.41992188 3.75765625 17.83984375 3.6328125 17.2421875 C2.86073712 13.64312844 2.06038733 10.17780715 0.875 6.6875 C0 4 0 4 0 0 Z " fill="#9FDA86" transform="translate(393,252)"/>
<path d="M0 0 C0 0.66 0 1.32 0 2 C-2.17699873 3.68493737 -4.35511719 5.26194625 -6.625 6.8125 C-14.8816374 11.91128298 -14.8816374 11.91128298 -21 19 C-22.32 18.67 -23.64 18.34 -25 18 C-20.03629701 12.44537999 -14.81971306 7.93511912 -8.5625 3.9375 C-7.94745605 3.54377197 -7.33241211 3.15004395 -6.69873047 2.74438477 C-2.28243681 0 -2.28243681 0 0 0 Z " fill="#FAE284" transform="translate(44,218)"/>
<path d="M0 0 C0.33 0 0.66 0 1 0 C3.41979401 12.97889514 3.37911859 25.15934937 0 38 C-0.33 38 -0.66 38 -1 38 C-0.67 25.46 -0.34 12.92 0 0 Z " fill="#F7E693" transform="translate(149,269)"/>
<path d="M0 0 C0.33 0 0.66 0 1 0 C0.88556397 2.0839403 0.75804453 4.16716493 0.625 6.25 C0.55539063 7.41015625 0.48578125 8.5703125 0.4140625 9.765625 C0 13 0 13 -1.01367188 14.79492188 C-2.3524374 17.78792441 -2.22504747 20.24477812 -2.1953125 23.515625 C-2.18886719 24.76601563 -2.18242188 26.01640625 -2.17578125 27.3046875 C-2.15902344 28.60664063 -2.14226562 29.90859375 -2.125 31.25 C-2.11597656 32.56742187 -2.10695312 33.88484375 -2.09765625 35.2421875 C-2.07408533 38.49497462 -2.04118022 41.74739589 -2 45 C-2.33 45 -2.66 45 -3 45 C-5.71801975 29.16360393 -4.68297041 15.35578669 0 0 Z " fill="#F8ECB0" transform="translate(5,259)"/>
<path d="M0 0 C0 8.37321693 -9.63944613 16.29398822 -15 22 C-15.33 20.68 -15.66 19.36 -16 18 C-14.68 17.67 -13.36 17.34 -12 17 C-12 16.01 -12 15.02 -12 14 C-11.34 14 -10.68 14 -10 14 C-9.67 12.35 -9.34 10.7 -9 9 C-8.01 8.67 -7.02 8.34 -6 8 C-6 7.34 -6 6.68 -6 6 C-5.34 6 -4.68 6 -4 6 C-4 4.68 -4 3.36 -4 2 C-2.68 1.34 -1.36 0.68 0 0 Z " fill="#F68ECB" transform="translate(267,111)"/>
<path d="M0 0 C3.63 0.33 7.26 0.66 11 1 C11.50490345 3.01961379 12.00953488 5.03933137 12.5 7.0625 C12.92981688 8.7280404 13.45605447 10.36816342 14 12 C9.73184401 10.61265978 7.29336833 8.6463822 4.1875 5.4375 C3.39730469 4.63183594 2.60710938 3.82617188 1.79296875 2.99609375 C0 1 0 1 0 0 Z " fill="#FCDD5B" transform="translate(20,336)"/>
<path d="M0 0 C-4.9803092 4.9803092 -15.09640369 6.76162365 -21.94921875 7.32421875 C-24.98292355 7.31420652 -27.97582138 7.23302746 -31 7 C-30.67 6.34 -30.34 5.68 -30 5 C-27.3125 4.62109375 -27.3125 4.62109375 -24 4.4375 C-20.18265388 4.54568981 -20.18265388 4.54568981 -17 3 C-14.66702567 2.95907063 -12.33294775 2.95758277 -10 3 C-10 2.34 -10 1.68 -10 1 C-6.59437148 0.22157062 -3.49234244 -0.09978121 0 0 Z " fill="#FBE896" transform="translate(108,354)"/>
<path d="M0 0 C1.26237731 2.52475462 1.09856404 4.31200466 1.0625 7.125 C1.05347656 8.03507813 1.04445313 8.94515625 1.03515625 9.8828125 C1.02355469 10.58148438 1.01195312 11.28015625 1 12 C0.06027344 12.12375 0.06027344 12.12375 -0.8984375 12.25 C-3.14677637 12.78793526 -3.14677637 12.78793526 -3.9765625 14.8125 C-4.19054687 15.534375 -4.40453125 16.25625 -4.625 17 C-5.2890625 19.1875 -5.2890625 19.1875 -6 21 C-6.66 21.33 -7.32 21.66 -8 22 C-7.46393482 14.13771072 -4.35349826 6.53024739 0 0 Z " fill="#95DA76" transform="translate(261,247)"/>
<path d="M0 0 C0.66 0 1.32 0 2 0 C2.58305225 3.84814487 1.7002883 5.76308635 -0.5 8.8125 C-1.32219744 9.88364055 -2.15204049 10.9491359 -3 12 C-4.32 11.67 -5.64 11.34 -7 11 C-6.58485103 6.1565954 -4.53791301 4.18412171 -1 1 C-0.67 0.67 -0.34 0.34 0 0 Z " fill="#323030" transform="translate(120,210)"/>
<path d="M0 0 C-2.56602757 2.56602757 -4.78239561 3.02142699 -8.25 4.0625 C-9.92835938 4.57490234 -9.92835938 4.57490234 -11.640625 5.09765625 C-17.56567518 6.68915229 -22.90988157 7.10500204 -29 7 C-29 6.67 -29 6.34 -29 6 C-28.16855469 5.89042969 -27.33710938 5.78085937 -26.48046875 5.66796875 C-25.39378906 5.50941406 -24.30710937 5.35085938 -23.1875 5.1875 C-21.56908203 4.96126953 -21.56908203 4.96126953 -19.91796875 4.73046875 C-16.81692026 3.95416879 -16.08300316 3.26361037 -14 1 C-9.28017356 0.14888376 -4.80053639 -0.12001341 0 0 Z " fill="#A6E08E" transform="translate(358,354)"/>
<path d="M0 0 C0 0.66 0 1.32 0 2 C-0.99 2 -1.98 2 -3 2 C-3 2.99 -3 3.98 -3 5 C-3.66 5 -4.32 5 -5 5 C-5.061875 5.61875 -5.12375 6.2375 -5.1875 6.875 C-6 9 -6 9 -8.4375 10.25 C-11 11 -11 11 -13 11 C-14.34882408 11.63474075 -15.6846659 12.29848848 -17 13 C-13.38259432 8.05621223 -6.53996121 0 0 0 Z " fill="#F99CD3" transform="translate(163,12)"/>
<path d="M0 0 C0.66 0 1.32 0 2 0 C0.21440518 6.95365789 -2.2558133 12.87314903 -6 19 C-6.33 19 -6.66 19 -7 19 C-7.19402245 14.82851735 -7.01430083 11.71055417 -5 8 C-4.01 7.67 -3.02 7.34 -2 7 C-0.77030122 3.48809191 -0.77030122 3.48809191 0 0 Z " fill="#FAE47D" transform="translate(146,308)"/>
<path d="M0 0 C0 0.33 0 0.66 0 1 C-5.94 1.33 -11.88 1.66 -18 2 C-18 2.66 -18 3.32 -18 4 C-22.29 4 -26.58 4 -31 4 C-21.17269926 -0.91365037 -10.71762677 -0.22380195 0 0 Z " fill="#F6B1DF" transform="translate(210,1)"/>
<path d="M0 0 C2.125 0.9375 2.125 0.9375 4 2 C-1.1761811 6.7260784 -6.6177617 11.00139809 -13 14 C-13.66 13.67 -14.32 13.34 -15 13 C-15 12.34 -15 11.68 -15 11 C-13.68 11 -12.36 11 -11 11 C-11 10.34 -11 9.68 -11 9 C-9.35 8.67 -7.7 8.34 -6 8 C-5.67 7.01 -5.34 6.02 -5 5 C-3.68 5 -2.36 5 -1 5 C-1.33 3.68 -1.66 2.36 -2 1 C-1.34 0.67 -0.68 0.34 0 0 Z " fill="#A9E08E" transform="translate(373,340)"/>
<path d="M0 0 C0.66 0 1.32 0 2 0 C2 1.32 2 2.64 2 4 C2.66 4 3.32 4 4 4 C4.66 7.3 5.32 10.6 6 14 C6.99 13.67 7.98 13.34 9 13 C9.33 15.31 9.66 17.62 10 20 C9.01 20 8.02 20 7 20 C3.75956186 13.3830748 1.30960645 7.26236302 0 0 Z " fill="#FAE894" transform="translate(3,304)"/>
<path d="M0 0 C0.66 0 1.32 0 2 0 C2 0.66 2 1.32 2 2 C2.9075 2.165 3.815 2.33 4.75 2.5 C8.80770231 4.37278568 9.34363496 6.01010753 11.0546875 9.95703125 C12.30402825 12.65705279 14.04970185 14.77108782 16 17 C9.7918476 14.34138348 3.93904009 8.48387163 0.9375 2.4375 C0.628125 1.633125 0.31875 0.82875 0 0 Z " fill="#F193CC" transform="translate(139,119)"/>
<path d="M0 0 C3.70101696 -0.28469361 6.41857538 0.07728897 9.8125 1.4375 C16.8649205 4.01528129 24.57474909 3.7527758 32 4 C32 4.33 32 4.66 32 5 C20.82565057 5.34207192 10.86520329 4.93465298 0 2 C0 1.34 0 0.68 0 0 Z " fill="#F6A6DB" transform="translate(178,147)"/>
<path d="M0 0 C8.0704358 0.61458229 16.01385781 1.69225335 24 3 C24 3.66 24 4.32 24 5 C18.1111566 5.21221057 13.16709687 4.55320433 7.5 3 C6.40945312 2.71382813 6.40945312 2.71382813 5.296875 2.421875 C3.52893469 1.95662755 1.76411067 1.47956407 0 1 C0 0.67 0 0.34 0 0 Z " fill="#F9E78C" transform="translate(49,356)"/>
<path d="M0 0 C2.78478096 3.26491561 3.99473292 6.41569816 5.25 10.5 C5.60578125 11.6240625 5.9615625 12.748125 6.328125 13.90625 C6.96531293 16.84027816 7.05275565 18.24663906 6 21 C6 20.34 6 19.68 6 19 C5.34 19 4.68 19 4 19 C3.87882812 18.41992188 3.75765625 17.83984375 3.6328125 17.2421875 C2.86073712 13.64312844 2.06038733 10.17780715 0.875 6.6875 C0 4 0 4 0 0 Z " fill="#A5DF8D" transform="translate(393,252)"/>
<path d="M0 0 C2.31 0.66 4.62 1.32 7 2 C7.33 3.65 7.66 5.3 8 7 C9.32 7 10.64 7 12 7 C12.99 8.98 13.98 10.96 15 13 C10.4864478 11.57680786 7.96120857 9.30820734 4.6875 5.9375 C3.80449219 5.03902344 2.92148437 4.14054687 2.01171875 3.21484375 C0 1 0 1 0 0 Z " fill="#A2DC85" transform="translate(269,335)"/>
<path d="M0 0 C0.99 0.33 1.98 0.66 3 1 C3.87890625 3.03125 3.87890625 3.03125 4.5625 5.5 C5.20384717 7.91495405 5.20384717 7.91495405 6 10 C6.66 10.33 7.32 10.66 8 11 C8.33 11.99 8.66 12.98 9 14 C9.66 14 10.32 14 11 14 C11.33 15.65 11.66 17.3 12 19 C6.55005944 14.37580801 3.23492352 8.31136375 0 2 C0 1.34 0 0.68 0 0 Z " fill="#B2E49C" transform="translate(257,316)"/>
<path d="M0 0 C-1.25093741 3.89180528 -3.66075999 5.30634162 -7.1796875 7.18359375 C-9.41776307 8.18736584 -11.56853586 8.70527707 -14 9 C-10.44113418 5.11760093 -5.62095916 0 0 0 Z " fill="#9FD883" transform="translate(294,218)"/>
<path d="M0 0 C0.33 1.32 0.66 2.64 1 4 C0.34 4 -0.32 4 -1 4 C-1.33 5.65 -1.66 7.3 -2 9 C-3.98 9.66 -5.96 10.32 -8 11 C-6.63629701 8.00779732 -5.05091917 5.70973471 -2.875 3.25 C-2.33617187 2.63640625 -1.79734375 2.0228125 -1.2421875 1.390625 C-0.62730469 0.70226562 -0.62730469 0.70226562 0 0 Z " fill="#A2DE87" transform="translate(271,234)"/>
<path d="M0 0 C5.31027254 1.46032495 9.46330032 3.98320986 14 7 C12.68 7.33 11.36 7.66 10 8 C10 7.34 10 6.68 10 6 C9.42765625 5.86722656 8.8553125 5.73445312 8.265625 5.59765625 C6.02349125 5.00619683 3.91420381 4.26711146 1.75 3.4375 C1.04359375 3.16808594 0.3371875 2.89867187 -0.390625 2.62109375 C-0.92171875 2.41613281 -1.4528125 2.21117187 -2 2 C-1.34 1.34 -0.68 0.68 0 0 Z " fill="#B2E39C" transform="translate(354,216)"/>
<path d="M0 0 C3.58806317 3.38872633 6.45684799 6.76141332 9 11 C9 11.66 9 12.32 9 13 C4.97449681 11.6581656 4.11714364 9.5772427 2 6 C2 5.34 2 4.68 2 4 C1.34 4 0.68 4 0 4 C0 2.68 0 1.36 0 0 Z " fill="#F195CF" transform="translate(258,28)"/>
<path d="M0 0 C0.99 0.33 1.98 0.66 3 1 C0.36 3.97 -2.28 6.94 -5 10 C-5.33 8.68 -5.66 7.36 -6 6 C-4.21482174 3.35301155 -2.87978754 1.43989377 0 0 Z " fill="#A0DD82" transform="translate(385,329)"/>
<path d="M0 0 C0 0.66 0 1.32 0 2 C-4.57776674 5.73695244 -8.25656667 7.71065782 -14 9 C-10.44113418 5.11760093 -5.62095916 0 0 0 Z " fill="#FAE99B" transform="translate(44,218)"/>
<path d="M0 0 C0.33 0 0.66 0 1 0 C0.91266027 2.08410658 0.80447722 4.16734669 0.6875 6.25 C0.62949219 7.41015625 0.57148437 8.5703125 0.51171875 9.765625 C-0.01711803 13.10819638 -0.73772333 14.5497057 -3 17 C-3.40214229 10.83381819 -1.96818336 5.82254243 0 0 Z " fill="#F9E58D" transform="translate(5,259)"/>
<path d="M0 0 C5.39701076 0.34098761 9.51829726 0.70463034 14 4 C14.99 4.66 15.98 5.32 17 6 C10.81839396 5.46246904 5.673142 3.45417612 0 1 C0 0.67 0 0.34 0 0 Z " fill="#ADE397" transform="translate(292,353)"/>
<path d="M0 0 C1.52730554 4.93937111 0.0005063 8.83223636 -2.125 13.4375 C-2.41375 13.953125 -2.7025 14.46875 -3 15 C-4.43410153 11.21180727 -3.51009497 8.93478721 -2.0625 5.25 C-1.49208984 3.77273438 -1.49208984 3.77273438 -0.91015625 2.265625 C-0.60980469 1.51796875 -0.30945313 0.7703125 0 0 Z " fill="#A8E08D" transform="translate(257,254)"/>
<path d="M0 0 C5.01113235 1.4317521 6.94469549 3.98445693 10 8 C8.68 8 7.36 8 6 8 C6 7.34 6 6.68 6 6 C5.34 6 4.68 6 4 6 C4 5.34 4 4.68 4 4 C3.01 4 2.02 4 1 4 C0.67 2.68 0.34 1.36 0 0 Z " fill="#F8E898" transform="translate(118,224)"/>
<path d="M0 0 C1.0326802 2.78823655 1.04509293 3.8677274 0.0625 6.75 C-0.288125 7.4925 -0.63875 8.235 -1 9 C-1.66 9 -2.32 9 -3 9 C-3 9.66 -3 10.32 -3 11 C-3.66 11 -4.32 11 -5 11 C-3.77472971 6.94718288 -2.30119506 3.55639236 0 0 Z " fill="#F8E890" transform="translate(11,247)"/>
<path d="M0 0 C0.33 0.66 0.66 1.32 1 2 C-0.1875 5.5625 -0.1875 5.5625 -2 9 C-4.1875 9.9375 -4.1875 9.9375 -6 10 C-4.6302836 6.00499382 -2.74277578 3.19990508 0 0 Z " fill="#F9E893" transform="translate(18,237)"/>
<path d="M0 0 C0.33 0 0.66 0 1 0 C1.29341888 5.67276511 1.00559652 8.99067246 -2 14 C-3.08577754 10.74266739 -2.90445241 9.67810011 -2.125 6.4375 C-1.94195312 5.65246094 -1.75890625 4.86742187 -1.5703125 4.05859375 C-1 2 -1 2 0 0 Z " fill="#F184C7" transform="translate(132,45)"/>
<path d="M0 0 C0 3.58912412 -0.66436554 4.10857029 -3 6.6875 C-3.556875 7.31011719 -4.11375 7.93273437 -4.6875 8.57421875 C-5.120625 9.04472656 -5.55375 9.51523437 -6 10 C-6.33 8.68 -6.66 7.36 -7 6 C-6.34 6 -5.68 6 -5 6 C-5 5.01 -5 4.02 -5 3 C-2.5 1.3125 -2.5 1.3125 0 0 Z " fill="#FCE892" transform="translate(138,327)"/>
<path d="M0 0 C0.66 0 1.32 0 2 0 C1.54965877 1.62723299 1.08944646 3.25173664 0.625 4.875 C0.36976563 5.77992188 0.11453125 6.68484375 -0.1484375 7.6171875 C-1 10 -1 10 -3 12 C-2.49202991 7.6822542 -1.80317221 3.96697886 0 0 Z " fill="#F8E997" transform="translate(146,308)"/>
<path d="M0 0 C3.39417765 3.12621626 5.6062718 5.56541027 7 10 C3.78634109 8.89184175 3.0085776 8.01470446 1.25 5 C0 2 0 2 0 0 Z " fill="#AFE399" transform="translate(383,237)"/>
<path d="M0 0 C0.99 0 1.98 0 3 0 C3 0.66 3 1.32 3 2 C3.99 2 4.98 2 6 2 C6.33 3.65 6.66 5.3 7 7 C7.66 7 8.32 7 9 7 C8.67 7.66 8.34 8.32 8 9 C5.06799526 6.14723863 2.35684596 3.34920216 0 0 Z " fill="#F37BC6" transform="translate(150,130)"/>
<path d="M0 0 C2.74501997 3.61186839 5.37012014 7.30395263 8 11 C4.78956118 9.61811547 2.95063635 8.07578097 0.75 5.375 C0.22921875 4.74335938 -0.2915625 4.11171875 -0.828125 3.4609375 C-1.21484375 2.97882813 -1.6015625 2.49671875 -2 2 C-1.34 2 -0.68 2 0 2 C0 1.34 0 0.68 0 0 Z " fill="#F3A6D9" transform="translate(147,125)"/>
<path d="M0 0 C0.75 1.5625 0.75 1.5625 1 4 C-0.13084437 6.50286409 -1.52139516 8.67007722 -3 11 C-3.66 11 -4.32 11 -5 11 C-3.77472971 6.94718288 -2.30119506 3.55639236 0 0 Z " fill="#F09AD0" transform="translate(138,34)"/>
<path d="M0 0 C0.33 0.66 0.66 1.32 1 2 C-0.375 4 -0.375 4 -2 6 C-2.66 6 -3.32 6 -4 6 C-4 6.66 -4 7.32 -4 8 C-5.32 7.67 -6.64 7.34 -8 7 C-5.36 4.69 -2.72 2.38 0 0 Z " fill="#F478C1" transform="translate(151,21)"/>
<path d="M0 0 C2 0 2 0 4.125 1.875 C6 4 6 4 6 6 C6.66 6 7.32 6 8 6 C7.67 7.32 7.34 8.64 7 10 C5.83043409 8.52312468 4.66441854 7.04343707 3.5 5.5625 C2.8503125 4.73878906 2.200625 3.91507812 1.53125 3.06640625 C0 1 0 1 0 0 Z " fill="#FAEA9E" transform="translate(12,326)"/>
<path d="M0 0 C1.17539996 0.92652701 2.34010577 1.86663387 3.5 2.8125 C4.1496875 3.33457031 4.799375 3.85664063 5.46875 4.39453125 C7 6 7 6 7 9 C6.34 8.34 5.68 7.68 5 7 C2.93125966 6.3574765 2.93125966 6.3574765 1 6 C0.67 4.02 0.34 2.04 0 0 Z " fill="#F8E996" transform="translate(128,232)"/>
<path d="M0 0 C0 0.66 0 1.32 0 2 C-0.99 2 -1.98 2 -3 2 C-3 2.99 -3 3.98 -3 5 C-3.66 5 -4.32 5 -5 5 C-5.33 6.32 -5.66 7.64 -6 9 C-6.66 8.01 -7.32 7.02 -8 6 C-3.38461538 0 -3.38461538 0 0 0 Z " fill="#F289C8" transform="translate(163,12)"/>
<path d="M0 0 C3.99455527 0.61454696 6.74466336 2.70646737 10 5 C9.01 5.33 8.02 5.66 7 6 C6.34 5.67 5.68 5.34 5 5 C5 4.34 5 3.68 5 3 C3.35 2.67 1.7 2.34 0 2 C0 1.34 0 0.68 0 0 Z " fill="#F39DD4" transform="translate(235,10)"/>
<path d="M0 0 C1.65 0 3.3 0 5 0 C5.99 1.98 6.98 3.96 8 6 C4.08597051 4.73058503 2.20927127 3.48832306 0 0 Z " fill="#FAE995" transform="translate(26,342)"/>
<path d="M0 0 C0.66 0 1.32 0 2 0 C3.80230168 3.82989106 4.19622241 6.78121808 4 11 C1.6870518 8.6870518 1.50419025 7.52095125 0.875 4.375 C0.70742187 3.55773437 0.53984375 2.74046875 0.3671875 1.8984375 C0.24601563 1.27195312 0.12484375 0.64546875 0 0 Z " fill="#F3A4D3" transform="translate(129,98)"/>
<path d="M0 0 C0.66 0.66 1.32 1.32 2 2 C1.69903201 6.13830989 1.32101984 8.51847024 -1 12 C-1.14285714 3.42857143 -1.14285714 3.42857143 0 0 Z " fill="#F395D2" transform="translate(272,92)"/>
<path d="M0 0 C0.66 0 1.32 0 2 0 C0.7508258 3.45925163 -0.67527795 6.14693203 -3 9 C-2.25 2.25 -2.25 2.25 0 0 Z " fill="#AEE194" transform="translate(391,320)"/>
<path d="M0 0 C4.26086957 6.39130435 4.26086957 6.39130435 3.625 10.3125 C3.41875 10.869375 3.2125 11.42625 3 12 C3 11.01 3 10.02 3 9 C2.34 9 1.68 9 1 9 C0.67 6.03 0.34 3.06 0 0 Z " fill="#F4A5D8" transform="translate(270,47)"/>
<path d="M0 0 C1.32 0 2.64 0 4 0 C4.99 1.98 5.98 3.96 7 6 C2.32307692 4.52307692 2.32307692 4.52307692 0.6875 1.875 C0.460625 1.25625 0.23375 0.6375 0 0 Z " fill="#ACE090" transform="translate(277,342)"/>
<path d="M0 0 C0.33 2.31 0.66 4.62 1 7 C0.01 7 -0.98 7 -2 7 C-2.33 5.02 -2.66 3.04 -3 1 C-1 0 -1 0 0 0 Z " fill="#FBE482" transform="translate(12,317)"/>
<path d="M0 0 C1.65 0 3.3 0 5 0 C5 0.66 5 1.32 5 2 C2.03 2.66 -0.94 3.32 -4 4 C-4 3.34 -4 2.68 -4 2 C-2.68 2 -1.36 2 0 2 C0 1.34 0 0.68 0 0 Z " fill="#F192D0" transform="translate(225,145)"/>
<path d="M0 0 C0.66 0 1.32 0 2 0 C1.65120368 3.25543229 0.97866739 4.01873107 -1.5625 6.25 C-2.366875 6.8275 -3.17125 7.405 -4 8 C-4 6.68 -4 5.36 -4 4 C-2.68 3.67 -1.36 3.34 0 3 C0 2.01 0 1.02 0 0 Z " fill="#F095D0" transform="translate(255,125)"/>
<path d="M0 0 C3 1 3 1 4.1875 2.875 C5 5 5 5 5 8 C4.34 8 3.68 8 3 8 C0 2.25 0 2.25 0 0 Z " fill="#ABE191" transform="translate(257,316)"/>
<path d="M0 0 C1.39195915 4.17587745 -0.17676781 6.13474776 -2 10 C-2.33 10 -2.66 10 -3 10 C-3 8.02 -3 6.04 -3 4 C-2.34 4 -1.68 4 -1 4 C-0.67 2.68 -0.34 1.36 0 0 Z " fill="#AEE398" transform="translate(396,310)"/>
<path d="M0 0 C3.36591866 1.44253657 5.51047079 3.33264727 8 6 C7.01 6.495 7.01 6.495 6 7 C5.34 6.34 4.68 5.68 4 5 C3.29875 4.505 2.5975 4.01 1.875 3.5 C1.25625 3.005 0.6375 2.51 0 2 C0 1.34 0 0.68 0 0 Z " fill="#ABE495" transform="translate(368,224)"/>
<path d="M0 0 C2.475 0.495 2.475 0.495 5 1 C5.33 2.65 5.66 4.3 6 6 C3.97945196 4.35830472 1.97956942 2.69088222 0 1 C0 0.67 0 0.34 0 0 Z " fill="#FAE48A" transform="translate(20,336)"/>
<path d="M0 0 C0.94875 0.350625 1.8975 0.70125 2.875 1.0625 C2.875 1.7225 2.875 2.3825 2.875 3.0625 C-2.875 2.3125 -2.875 2.3125 -5.125 0.0625 C-3.125 -0.9375 -3.125 -0.9375 0 0 Z " fill="#ACDF8A" transform="translate(357.125,216.9375)"/>
<path d="M0 0 C-3.00617269 3.00617269 -5.82381598 2.59585316 -10 3 C-6.84439813 -0.15560187 -4.30999015 -1.43666338 0 0 Z " fill="#B9E7A2" transform="translate(304,215)"/>
</svg>
